<?xml version="1.0" encoding="utf-8"?>
<!-- Generator: Adobe Illustrator 22.1.0, SVG Export Plug-In . SVG Version: 6.00 Build 0)  -->
<svg version="1.1" id="Layer_1" xmlns="http://www.w3.org/2000/svg" xmlns:xlink="http://www.w3.org/1999/xlink" x="0px" y="0px"
	 viewBox="0 0 76.9 75" style="enable-background:new 0 0 76.9 75;" xml:space="preserve">
<metadata><?xpacket begin="﻿" id="W5M0MpCehiHzreSzNTczkc9d"?>
<x:xmpmeta xmlns:x="adobe:ns:meta/" x:xmptk="Adobe XMP Core 5.6-c143 79.161356, 2017/09/07-01:11:22        ">
   <rdf:RDF xmlns:rdf="http://www.w3.org/1999/02/22-rdf-syntax-ns#">
      <rdf:Description rdf:about=""/>
   </rdf:RDF>
</x:xmpmeta>
                                                                                                    
                                                                                                    
                                                                                                    
                                                                                                    
                                                                                                    
                                                                                                    
                                                                                                    
                                                                                                    
                                                                                                    
                                                                                                    
                                                                                                    
                                                                                                    
                                                                                                    
                                                                                                    
                                                                                                    
                                                                                                    
                                                                                                    
                                                                                                    
                                                                                                    
                                                                                                    
                           
<?xpacket end="w"?></metadata>
<style type="text/css">
	.st0{fill-rule:evenodd;clip-rule:evenodd;fill:#191717;}
	.st1{fill:#191717;}
</style>
<g>
	<path class="st0" d="M38.4,0C17.2,0,0,17.2,0,38.4c0,17,11,31.4,26.3,36.5c1.9,0.4,2.6-0.8,2.6-1.8c0-0.9,0-3.9-0.1-7.2
		c-10.7,2.3-13-4.5-13-4.5c-1.7-4.4-4.3-5.6-4.3-5.6c-3.5-2.4,0.3-2.3,0.3-2.3c3.9,0.3,5.9,4,5.9,4c3.4,5.9,9,4.2,11.2,3.2
		c0.3-2.5,1.3-4.2,2.4-5.1c-8.5-1-17.5-4.3-17.5-19c0-4.2,1.5-7.6,4-10.3c-0.4-1-1.7-4.9,0.4-10.2c0,0,3.2-1,10.6,3.9
		c3.1-0.9,6.4-1.3,9.6-1.3c3.3,0,6.6,0.4,9.6,1.3c7.3-5,10.6-3.9,10.6-3.9c2.1,5.3,0.8,9.2,0.4,10.2c2.5,2.7,4,6.1,4,10.3
		c0,14.8-9,18-17.6,19c1.4,1.2,2.6,3.5,2.6,7.1c0,5.1,0,9.3,0,10.6c0,1,0.7,2.2,2.6,1.8c15.3-5.1,26.3-19.5,26.3-36.5
		C76.9,17.2,59.7,0,38.4,0z"/>
	<path class="st1" d="M14.6,55.2c-0.1,0.2-0.4,0.2-0.7,0.1c-0.3-0.1-0.4-0.4-0.3-0.6c0.1-0.2,0.4-0.3,0.7-0.1
		C14.5,54.8,14.7,55,14.6,55.2L14.6,55.2z M14.1,54.9"/>
	<path class="st1" d="M16.1,56.9c-0.2,0.2-0.5,0.1-0.8-0.2c-0.3-0.3-0.3-0.6-0.1-0.8c0.2-0.2,0.5-0.1,0.8,0.2
		C16.3,56.4,16.3,56.8,16.1,56.9L16.1,56.9z M15.8,56.5"/>
	<path class="st1" d="M17.6,59.2c-0.2,0.2-0.6,0-0.9-0.3c-0.2-0.3-0.2-0.8,0-0.9c0.2-0.2,0.6,0,0.9,0.3C17.9,58.6,17.9,59,17.6,59.2
		L17.6,59.2z M17.6,59.2"/>
	<path class="st1" d="M19.7,61.3c-0.2,0.2-0.7,0.2-1-0.1c-0.3-0.3-0.4-0.7-0.2-1c0.2-0.2,0.7-0.2,1,0.1
		C19.8,60.6,19.9,61.1,19.7,61.3L19.7,61.3z M19.7,61.3"/>
	<path class="st1" d="M22.6,62.5c-0.1,0.3-0.5,0.4-1,0.3c-0.4-0.1-0.7-0.5-0.6-0.8c0.1-0.3,0.5-0.4,1-0.3
		C22.4,61.9,22.7,62.2,22.6,62.5L22.6,62.5z M22.6,62.5"/>
	<path class="st1" d="M25.7,62.8c0,0.3-0.4,0.6-0.8,0.6c-0.5,0-0.8-0.2-0.8-0.6c0-0.3,0.4-0.6,0.8-0.6
		C25.4,62.2,25.7,62.5,25.7,62.8L25.7,62.8z M25.7,62.8"/>
	<path class="st1" d="M28.7,62.3c0.1,0.3-0.3,0.6-0.7,0.7c-0.4,0.1-0.9-0.1-0.9-0.4c-0.1-0.3,0.3-0.6,0.7-0.7
		C28.2,61.8,28.6,62,28.7,62.3L28.7,62.3z M28.7,62.3"/>
</g>
</svg>
