<?xml version="1.0" encoding="utf-8"?>
<!-- Generator: Adobe Illustrator 22.1.0, SVG Export Plug-In . SVG Version: 6.00 Build 0)  -->
<svg version="1.1" id="Layer_1" xmlns="http://www.w3.org/2000/svg" xmlns:xlink="http://www.w3.org/1999/xlink" x="0px" y="0px"
	 viewBox="0 0 67.5 75" style="enable-background:new 0 0 67.5 75;" xml:space="preserve">
<metadata><?xpacket begin="﻿" id="W5M0MpCehiHzreSzNTczkc9d"?>
<x:xmpmeta xmlns:x="adobe:ns:meta/" x:xmptk="Adobe XMP Core 5.6-c143 79.161356, 2017/09/07-01:11:22        ">
   <rdf:RDF xmlns:rdf="http://www.w3.org/1999/02/22-rdf-syntax-ns#">
      <rdf:Description rdf:about=""/>
   </rdf:RDF>
</x:xmpmeta>
                                                                                                    
                                                                                                    
                                                                                                    
                                                                                                    
                                                                                                    
                                                                                                    
                                                                                                    
                                                                                                    
                                                                                                    
                                                                                                    
                                                                                                    
                                                                                                    
                                                                                                    
                                                                                                    
                                                                                                    
                                                                                                    
                                                                                                    
                                                                                                    
                                                                                                    
                                                                                                    
                           
<?xpacket end="w"?></metadata>
<style type="text/css">
	.st0{fill:#FFFFFF;}
</style>
<path class="st0" d="M60.7,0h-54C3,0,0,3,0,6.8v61.5C0,72,3,75,6.8,75h54c3.7,0,6.8-3,6.8-6.8V6.8C67.5,3,64.5,0,60.7,0z M16.9,63.8
	v-15l8.4,7.5L16.9,63.8z M43.1,63.8V41.4c0-1.8-0.9-3.9-4.7-3.9c-7.6,0-16.2,3.8-16.3,3.9l-5.3,2.4V11.2h7.5v21.3
	c3.7-1.2,9-2.5,14.1-2.5c4.6,0,7.4,1.8,8.9,3.4c3.2,3.3,3.3,7.4,3.3,7.9l0,22.5H43.1z M45,23.4h-7.5c2.9-3.9,4.8-7.9,5.6-12.2h7.5
	C50.1,15.5,48.4,19.6,45,23.4z"/>
</svg>
