<?xml version="1.0" encoding="utf-8"?>
<!-- Generator: Adobe Illustrator 22.1.0, SVG Export Plug-In . SVG Version: 6.00 Build 0)  -->
<svg version="1.1" id="Layer_1" xmlns="http://www.w3.org/2000/svg" xmlns:xlink="http://www.w3.org/1999/xlink" x="0px" y="0px"
	 viewBox="0 0 75 75" style="enable-background:new 0 0 75 75;" xml:space="preserve">
<metadata><?xpacket begin="﻿" id="W5M0MpCehiHzreSzNTczkc9d"?>
<x:xmpmeta xmlns:x="adobe:ns:meta/" x:xmptk="Adobe XMP Core 5.6-c143 79.161356, 2017/09/07-01:11:22        ">
   <rdf:RDF xmlns:rdf="http://www.w3.org/1999/02/22-rdf-syntax-ns#">
      <rdf:Description rdf:about=""/>
   </rdf:RDF>
</x:xmpmeta>
                                                                                                    
                                                                                                    
                                                                                                    
                                                                                                    
                                                                                                    
                                                                                                    
                                                                                                    
                                                                                                    
                                                                                                    
                                                                                                    
                                                                                                    
                                                                                                    
                                                                                                    
                                                                                                    
                                                                                                    
                                                                                                    
                                                                                                    
                                                                                                    
                                                                                                    
                                                                                                    
                           
<?xpacket end="w"?></metadata>
<style type="text/css">
	.st0{fill:#010101;}
</style>
<g>
	<path class="st0" d="M37.5,6.8c10,0,11.2,0,15.2,0.2c3.7,0.2,5.6,0.8,7,1.3c1.8,0.7,3,1.5,4.3,2.8c1.3,1.3,2.1,2.6,2.8,4.3
		c0.5,1.3,1.1,3.3,1.3,7c0.2,4,0.2,5.1,0.2,15.2s0,11.2-0.2,15.2c-0.2,3.7-0.8,5.6-1.3,7c-0.7,1.8-1.5,3-2.8,4.3
		c-1.3,1.3-2.6,2.1-4.3,2.8c-1.3,0.5-3.3,1.1-7,1.3c-4,0.2-5.1,0.2-15.2,0.2s-11.2,0-15.2-0.2c-3.7-0.2-5.6-0.8-7-1.3
		c-1.8-0.7-3-1.5-4.3-2.8c-1.3-1.3-2.1-2.6-2.8-4.3c-0.5-1.3-1.1-3.3-1.3-7c-0.2-4-0.2-5.1-0.2-15.2s0-11.2,0.2-15.2
		c0.2-3.7,0.8-5.6,1.3-7c0.7-1.8,1.5-3,2.8-4.3c1.3-1.3,2.6-2.1,4.3-2.8c1.3-0.5,3.3-1.1,7-1.3C26.3,6.8,27.5,6.8,37.5,6.8 M37.5,0
		C27.3,0,26,0,22,0.2C18,0.4,15.3,1,12.9,2c-2.5,1-4.6,2.2-6.6,4.3C4.2,8.4,2.9,10.5,2,12.9C1,15.3,0.4,18,0.2,22
		C0,26,0,27.3,0,37.5C0,47.7,0,49,0.2,53C0.4,57,1,59.7,2,62.1c1,2.5,2.2,4.6,4.3,6.6c2.1,2.1,4.2,3.4,6.6,4.3
		c2.4,0.9,5.1,1.6,9.1,1.7C26,75,27.3,75,37.5,75S49,75,53,74.8c4-0.2,6.7-0.8,9.1-1.7c2.5-1,4.6-2.2,6.6-4.3
		c2.1-2.1,3.4-4.2,4.3-6.6c0.9-2.4,1.6-5.1,1.7-9.1C75,49,75,47.7,75,37.5S75,26,74.8,22c-0.2-4-0.8-6.7-1.7-9.1
		c-1-2.5-2.2-4.6-4.3-6.6c-2.1-2.1-4.2-3.4-6.6-4.3C59.7,1,57,0.4,53,0.2C49,0,47.7,0,37.5,0L37.5,0z"/>
	<path class="st0" d="M37.5,18.2c-10.6,0-19.3,8.6-19.3,19.3s8.6,19.3,19.3,19.3s19.3-8.6,19.3-19.3S48.1,18.2,37.5,18.2z M37.5,50
		C30.6,50,25,44.4,25,37.5C25,30.6,30.6,25,37.5,25C44.4,25,50,30.6,50,37.5C50,44.4,44.4,50,37.5,50z"/>
	<circle class="st0" cx="57.5" cy="17.5" r="4.5"/>
</g>
</svg>
