<?xml version="1.0" encoding="utf-8"?>
<!-- Generator: Adobe Illustrator 22.1.0, SVG Export Plug-In . SVG Version: 6.00 Build 0)  -->
<svg version="1.1" id="Layer_1" xmlns="http://www.w3.org/2000/svg" xmlns:xlink="http://www.w3.org/1999/xlink" x="0px" y="0px"
	 viewBox="0 0 67.5 75" style="enable-background:new 0 0 67.5 75;" xml:space="preserve">
<metadata><?xpacket begin="﻿" id="W5M0MpCehiHzreSzNTczkc9d"?>
<x:xmpmeta xmlns:x="adobe:ns:meta/" x:xmptk="Adobe XMP Core 5.6-c143 79.161356, 2017/09/07-01:11:22        ">
   <rdf:RDF xmlns:rdf="http://www.w3.org/1999/02/22-rdf-syntax-ns#">
      <rdf:Description rdf:about=""/>
   </rdf:RDF>
</x:xmpmeta>
                                                                                                    
                                                                                                    
                                                                                                    
                                                                                                    
                                                                                                    
                                                                                                    
                                                                                                    
                                                                                                    
                                                                                                    
                                                                                                    
                                                                                                    
                                                                                                    
                                                                                                    
                                                                                                    
                                                                                                    
                                                                                                    
                                                                                                    
                                                                                                    
                                                                                                    
                                                                                                    
                           
<?xpacket end="w"?></metadata>
<style type="text/css">
	.st0{fill:#010101;}
</style>
<g id="logo_2_">
	<path class="st0" d="M60.7,0h-54C3,0,0,3,0,6.8v61.5C0,72,3,75,6.8,75h54c3.7,0,6.8-3,6.8-6.8V6.8C67.5,3,64.5,0,60.7,0z
		 M63.8,68.2c0,1.7-1.3,3-3,3h-54c-1.7,0-3-1.3-3-3V6.8c0-1.7,1.3-3,3-3h54c1.7,0,3,1.3,3,3V68.2z"/>
	<polygon class="st0" points="16.9,63.8 25.3,56.2 16.9,48.8 	"/>
	<path class="st0" d="M47.4,33.4c-1.5-1.5-4.3-3.4-8.9-3.4c-5.1,0-10.3,1.3-14.1,2.5V11.2h-7.5v32.5l5.3-2.4c0.1,0,8.6-3.9,16.3-3.9
		c3.8,0,4.7,2.1,4.7,3.9v22.4h7.5l0-22.5C50.6,40.8,50.6,36.6,47.4,33.4z"/>
	<path class="st0" d="M37.5,23.4H45c3.4-3.8,5.1-7.9,5.6-12.2h-7.5C42.3,15.5,40.4,19.6,37.5,23.4z"/>
</g>
</svg>
