<?xml version="1.0" encoding="utf-8"?>
<!-- Generator: Adobe Illustrator 22.1.0, SVG Export Plug-In . SVG Version: 6.00 Build 0)  -->
<svg version="1.1" id="Layer_1" xmlns="http://www.w3.org/2000/svg" xmlns:xlink="http://www.w3.org/1999/xlink" x="0px" y="0px"
	 viewBox="0 0 74.5 75" style="enable-background:new 0 0 74.5 75;" xml:space="preserve">
<metadata><?xpacket begin="﻿" id="W5M0MpCehiHzreSzNTczkc9d"?>
<x:xmpmeta xmlns:x="adobe:ns:meta/" x:xmptk="Adobe XMP Core 5.6-c143 79.161356, 2017/09/07-01:11:22        ">
   <rdf:RDF xmlns:rdf="http://www.w3.org/1999/02/22-rdf-syntax-ns#">
      <rdf:Description rdf:about=""/>
   </rdf:RDF>
</x:xmpmeta>
                                                                                                    
                                                                                                    
                                                                                                    
                                                                                                    
                                                                                                    
                                                                                                    
                                                                                                    
                                                                                                    
                                                                                                    
                                                                                                    
                                                                                                    
                                                                                                    
                                                                                                    
                                                                                                    
                                                                                                    
                                                                                                    
                                                                                                    
                                                                                                    
                                                                                                    
                                                                                                    
                           
<?xpacket end="w"?></metadata>
<path d="M69,0H5.5C2.5,0,0,2.4,0,5.4v64.3c0,3,2.5,5.4,5.5,5.4H69c3,0,5.5-2.4,5.5-5.4V5.4C74.5,2.4,72.1,0,69,0z M22.6,62.8H11.3
	V28.9h11.3V62.8z M17,24.3L17,24.3c-3.9,0-6.3-2.6-6.3-5.9c0-3.3,2.5-5.9,6.4-5.9c3.9,0,6.2,2.5,6.3,5.9
	C23.3,21.7,20.9,24.3,17,24.3z M63.2,62.8H51.9V44.7c0-4.6-1.6-7.7-5.7-7.7c-3.1,0-5,2.1-5.8,4.1c-0.3,0.7-0.4,1.7-0.4,2.7v18.9
	H28.8c0,0,0.1-30.7,0-33.9h11.3v4.8c1.5-2.3,4.2-5.6,10.1-5.6c7.4,0,13,4.8,13,15.2V62.8z"/>
</svg>
